<svg xmlns="http://www.w3.org/2000/svg" xmlns:xlink="http://www.w3.org/1999/xlink" width="500" zoomAndPan="magnify" viewBox="0 0 375 374.999991" height="500" preserveAspectRatio="xMidYMid meet" version="1.0"><defs><clipPath id="f1f771fad5"><path d="M 14 78 L 362.136719 78 L 362.136719 362.136719 L 14 362.136719 Z M 14 78 " clip-rule="nonzero"/></clipPath></defs><g clip-path="url(#f1f771fad5)"><path fill="#000000" d="M 297.09375 322.859375 C 297.535156 321.628906 297.945312 320.425781 298.320312 319.25 C 309.761719 283.390625 324.132812 248.65625 337.046875 213.320312 C 343.804688 194.832031 350.554688 176.339844 357.296875 157.84375 C 362.796875 142.753906 365.0625 127.457031 358.363281 112.167969 C 344.898438 81.429688 307.546875 76.515625 277.917969 79.433594 C 236.058594 83.550781 193.394531 95.492188 155.542969 113.722656 L 155.328125 113.828125 C 153.964844 114.484375 152.605469 115.152344 151.25 115.828125 C 102.242188 140.292969 46.898438 171.640625 23.621094 223.988281 C 4.238281 267.589844 15.214844 336.53125 64.1875 355.898438 C 104.757812 371.949219 146.128906 341.023438 149.414062 338.492188 C 144.726562 339.328125 128.753906 341.585938 113.675781 332.078125 C 113.675781 332.078125 99.902344 323.390625 94.429688 308.253906 C 85.527344 283.625 112.023438 243.417969 161.042969 211.308594 C 202.070312 188.648438 243.101562 165.980469 284.128906 143.320312 C 281.742188 144.636719 279.53125 157.714844 278.617188 160.570312 C 276.472656 167.277344 274.328125 173.988281 272.183594 180.699219 C 268.046875 193.636719 263.910156 206.578125 259.777344 219.515625 C 250.609375 248.199219 239.117188 276.640625 231.546875 305.769531 C 226.363281 325.71875 224.527344 351.636719 247.777344 360.375 C 272.925781 369.832031 289.664062 343.476562 297.089844 322.851562 Z M 297.09375 322.859375 " fill-opacity="1" fill-rule="nonzero"/></g></svg>