<svg xmlns="http://www.w3.org/2000/svg" xmlns:xlink="http://www.w3.org/1999/xlink" width="500" zoomAndPan="magnify" viewBox="0 0 375 374.999991" height="500" preserveAspectRatio="xMidYMid meet" version="1.0"><defs><clipPath id="e62f52dd23"><path d="M 13.519531 53 L 361.519531 53 L 361.519531 337.5 L 13.519531 337.5 Z M 13.519531 53 " clip-rule="nonzero"/></clipPath></defs><g clip-path="url(#e62f52dd23)"><path fill="#ffffff" d="M 296.210938 297.996094 C 296.652344 296.769531 297.0625 295.5625 297.4375 294.386719 C 308.878906 258.527344 323.25 223.792969 336.167969 188.457031 C 342.925781 169.96875 349.671875 151.476562 356.414062 132.984375 C 361.917969 117.890625 364.179688 102.59375 357.480469 87.304688 C 344.019531 56.566406 306.664062 51.65625 277.035156 54.570312 C 235.179688 58.6875 192.515625 70.628906 154.660156 88.859375 L 154.449219 88.964844 C 153.085938 89.621094 151.722656 90.289062 150.367188 90.96875 C 101.359375 115.433594 46.015625 146.777344 22.742188 199.125 C 3.355469 242.726562 14.332031 311.667969 63.304688 331.039062 C 103.875 347.085938 145.246094 316.160156 148.53125 313.628906 C 143.84375 314.464844 127.871094 316.722656 112.792969 307.214844 C 112.792969 307.214844 99.019531 298.53125 93.546875 283.390625 C 84.644531 258.761719 111.144531 218.554688 160.160156 186.449219 C 201.1875 163.785156 242.21875 141.117188 283.25 118.457031 C 280.859375 119.773438 278.648438 132.851562 277.734375 135.707031 C 275.589844 142.414062 273.445312 149.128906 271.300781 155.835938 C 267.164062 168.773438 263.027344 181.714844 258.894531 194.652344 C 249.726562 223.335938 238.238281 251.777344 230.667969 280.90625 C 225.480469 300.855469 223.648438 326.773438 246.894531 335.511719 C 272.042969 344.96875 288.78125 318.613281 296.210938 297.988281 Z M 296.210938 297.996094 " fill-opacity="1" fill-rule="nonzero"/></g></svg>