<?xml version="1.0" encoding="UTF-8"?>
<svg id="Calque_1" data-name="Calque 1" xmlns="http://www.w3.org/2000/svg" viewBox="0 0 3539.45 1402.51">
  <defs>
    <style>
      .cls-1 {
        fill: #fff;
      }
    </style>
  </defs>
  <path class="cls-1" d="M3294.9,1254.76c1.65-4.59,3.18-9.09,4.58-13.5,42.79-134.11,96.53-264.01,144.83-396.17,25.27-69.15,50.5-138.31,75.72-207.48,20.57-56.44,29.04-113.65,3.99-170.84-50.35-114.96-190.03-133.33-300.83-122.43-156.53,15.4-316.07,60.06-457.62,128.25l-.8.39c-5.1,2.46-10.19,4.96-15.26,7.49-183.26,91.5-390.22,208.73-477.26,404.52-72.49,163.07-31.44,420.91,151.69,493.35,151.71,60.02,306.42-55.64,318.71-65.11-17.53,3.13-77.26,11.57-133.65-23.99,0,0-51.5-32.48-71.97-89.1-33.29-92.11,65.8-242.49,249.1-362.57,153.43-84.76,306.86-169.53,460.29-254.29-8.93,4.93-17.2,53.84-20.62,64.52-8.02,25.09-16.04,50.19-24.06,75.28-15.46,48.39-30.93,96.79-46.39,145.18-34.28,107.27-77.25,213.65-105.56,322.59-19.39,74.61-26.25,171.54,60.69,204.23,94.04,35.36,156.63-63.2,184.41-140.34Z"/>
</svg>